<?xml version="1.0" standalone="no"?>
<!DOCTYPE svg PUBLIC "-//W3C//DTD SVG 20010904//EN"
 "http://www.w3.org/TR/2001/REC-SVG-20010904/DTD/svg10.dtd">
<svg version="1.0" xmlns="http://www.w3.org/2000/svg"
 width="1040.000000pt" height="1040.000000pt" viewBox="0 0 1040.000000 1040.000000"
 preserveAspectRatio="xMidYMid meet">
<metadata>
Created by potrace 1.11, written by Peter Selinger 2001-2013
</metadata>
<g transform="translate(0.000000,1040.000000) scale(0.100000,-0.100000)"
fill="#000000" stroke="none">
<path d="M3844 10319 c-66 -40 -135 -83 -154 -97 -72 -53 -145 -107 -150 -112
-3 -3 -32 -27 -65 -55 -130 -107 -338 -332 -426 -460 -19 -27 -36 -52 -39 -55
-22 -22 -140 -218 -183 -305 -6 -11 -14 -27 -19 -35 -4 -8 -13 -26 -18 -40 -6
-14 -17 -38 -25 -55 -62 -129 -142 -387 -174 -562 -41 -221 -46 -276 -46 -518
0 -180 5 -258 19 -350 3 -16 7 -48 10 -70 3 -22 8 -51 11 -65 2 -14 10 -50 16
-80 18 -96 61 -255 72 -267 5 -7 7 -13 3 -13 -5 0 61 -195 83 -245 24 -54 60
-142 66 -162 3 -13 11 -23 16 -23 5 0 9 -7 9 -15 0 -40 198 -395 348 -625 74
-113 331 -462 391 -530 17 -19 34 -39 38 -45 28 -36 174 -207 204 -240 20 -22
47 -52 60 -67 255 -284 555 -587 1089 -1098 37 -36 145 -139 240 -230 329
-316 597 -587 745 -755 39 -44 72 -82 75 -85 36 -33 208 -265 256 -343 16 -27
39 -65 51 -85 27 -44 131 -250 155 -307 78 -186 122 -328 163 -520 23 -108 22
-102 30 -170 4 -32 9 -68 11 -80 6 -31 16 -210 16 -305 0 -122 -12 -297 -27
-380 -1 -8 -6 -40 -11 -70 -4 -30 -8 -57 -9 -60 -2 -10 -28 -125 -30 -140 -2
-8 -4 -15 -5 -15 -1 0 -3 -7 -5 -15 -1 -8 -9 -35 -16 -60 -7 -25 -13 -47 -14
-50 -24 -90 -112 -314 -156 -397 -16 -29 -24 -53 -19 -53 19 0 305 174 330
200 3 3 36 29 74 59 103 80 112 88 222 196 90 88 157 161 204 221 8 11 31 40
51 64 41 51 145 205 179 265 104 181 228 462 231 522 1 5 4 13 9 18 11 14 65
232 84 335 32 177 40 290 40 520 -1 262 -8 354 -45 535 -12 55 -22 109 -24
120 -5 29 -55 206 -65 230 -5 11 -12 31 -15 45 -4 14 -36 99 -72 190 -101 255
-260 552 -433 810 -31 47 -69 103 -83 125 -15 22 -34 49 -43 60 -8 11 -34 45
-56 75 -99 135 -284 367 -380 475 -10 11 -28 32 -40 46 -35 39 -170 189 -201
223 -155 168 -523 540 -743 753 -205 197 -452 433 -508 486 -137 130 -455 449
-550 551 -151 163 -152 164 -188 207 -18 23 -42 51 -53 63 -98 111 -285 377
-285 405 0 6 -4 11 -10 11 -5 0 -10 6 -10 14 0 7 -7 19 -15 26 -8 7 -13 16
-10 20 3 5 1 11 -4 14 -13 9 -93 175 -134 282 -57 145 -103 288 -120 374 -3
14 -10 45 -16 70 -12 53 -21 103 -27 145 -2 17 -6 41 -8 55 -27 138 -27 526
-1 710 2 14 6 41 9 60 12 90 52 257 87 373 40 131 145 389 161 395 11 5 10 32
-1 32 -4 0 -62 -32 -127 -71z"/>
<path d="M6486 10323 c-1 -2 -25 -5 -52 -8 -27 -3 -57 -8 -66 -11 -9 -3 -25
-7 -35 -9 -177 -36 -361 -116 -511 -222 -77 -55 -213 -189 -257 -254 -16 -24
-33 -46 -36 -49 -3 -3 -9 -12 -13 -20 -4 -8 -12 -24 -19 -35 -21 -33 -41 -70
-42 -75 -1 -3 -7 -18 -14 -35 -53 -124 -82 -259 -82 -380 0 -113 21 -246 47
-297 8 -16 12 -28 9 -28 -9 0 62 -133 98 -183 45 -63 121 -141 427 -437 514
-497 1135 -1124 1406 -1419 140 -153 151 -163 160 -149 24 38 123 238 118 238
-4 0 -2 6 4 13 21 25 122 305 136 377 3 14 12 54 21 90 20 82 34 153 41 210 3
25 7 56 10 70 17 89 23 400 10 545 -9 105 -21 193 -36 270 -6 28 -12 59 -14
70 -3 11 -9 40 -15 65 -7 25 -14 54 -16 64 -2 11 -11 40 -20 66 -9 26 -17 55
-20 66 -17 80 -133 343 -213 486 -39 69 -106 173 -114 176 -4 2 -8 8 -8 13 0
8 -85 127 -100 139 -3 3 -13 15 -22 28 -38 56 -192 219 -294 312 -44 40 -190
157 -224 180 -12 8 -28 20 -34 25 -7 6 -21 15 -31 22 -11 7 -49 30 -85 52 -54
34 -100 47 -114 34z"/>
<path d="M2913 3719 c-7 -7 -13 -18 -13 -25 0 -7 -4 -14 -8 -16 -23 -9 -207
-421 -227 -508 -2 -8 -13 -45 -24 -82 -11 -37 -31 -123 -45 -190 -44 -213 -50
-284 -50 -543 0 -115 3 -232 6 -260 4 -27 10 -72 13 -100 4 -27 11 -70 16 -95
5 -25 11 -56 13 -70 5 -35 23 -114 42 -180 18 -60 21 -73 22 -80 4 -18 68
-186 98 -257 32 -75 90 -192 135 -273 36 -63 155 -242 180 -269 10 -11 19 -23
19 -26 0 -10 140 -171 207 -240 66 -67 148 -143 213 -195 24 -19 48 -40 54
-46 6 -5 61 -45 122 -87 89 -61 116 -75 140 -72 16 2 49 6 74 9 65 7 170 24
208 35 18 5 33 10 35 9 6 -1 95 24 112 32 11 5 43 18 71 29 96 37 251 128 332
196 187 157 336 397 377 610 3 17 9 44 12 60 3 17 6 82 6 145 0 185 -50 348
-151 489 -46 65 -210 231 -583 591 -267 257 -833 823 -1020 1021 -150 157
-188 197 -316 337 -47 51 -60 61 -70 51z"/>
</g>
</svg>
